:FULLY-SPECIFIED
:FORCE-ALL-JOINTS-BE-3DOF
:DEGREES
306
root 9.13628 15.4598 -23.7347 31.8415 77.1812 40.4992
lfemur -14.3128 11.7483 -20.4902
ltibia 56.5492 0 0
lfoot -16.0013 -36.6664 0
ltoes 62.9596 0 0
rfemur -39.9544 -5.39405 27.9385
rtibia 49.642 0 0
rfoot -0.853367 -17.3416 0
rtoes 48.1362 0 0
lowerback 7.65322 -4.8402 -8.21391
upperback 4.77152 -6.7216 -4.3444
thorax 1.12267 -3.39425 0.442987
lowerneck -2.57648 -12.3322 -6.47317
upperneck 3.1843 -16.6192 9.0182
head 2.93889 -8.1963 3.35964
lclavicle -1.00557e-13 -4.59256e-15 0
lhumerus -40.4992 -40.7871 100.244
lradius 60.7699 0 0
lwrist 19.5363 0 0
lhand 21.1487 15.5744 0
lfingers 7.12502 0 0
lthumb 45.6114 38.893 0
rclavicle -1.00557e-13 -4.59256e-15 0
rhumerus -73.4288 35.0894 -105.566
rradius 77.1203 0 0
rwrist 15.0564 0 0
rhand -28.2834 -12.5759 0
rfingers 7.12502 0 0
rthumb -1.62833 -762.933 0
307
root 9.09677 15.4778 -23.7053 31.3254 76.6266 39.783
lfemur -14.4393 11.943 -20.4536
ltibia 56.3172 0 0
lfoot -16.2254 -36.4556 0
ltoes 63.4118 0 0
rfemur -40.5916 -5.77459 28.0507
rtibia 50.098 0 0
rfoot -0.670452 -16.4569 0
rtoes 46.3003 0 0
lowerback 7.76409 -4.76132 -8.16591
upperback 4.77338 -6.62324 -4.35212
thorax 1.05292 -3.34333 0.40894
lowerneck -2.63843 -12.3089 -6.29384
upperneck 2.95047 -16.5753 9.05358
head 2.85727 -8.17897 3.34846
lclavicle -9.82357e-14 -4.54816e-15 0
lhumerus -40.6937 -41.0872 100.394
lradius 60.7254 0 0
lwrist 19.5132 0 0
lhand 21.0487 15.4274 0
lfingers 7.12502 0 0
lthumb 45.5182 38.7813 0
rclavicle -9.82357e-14 -4.54816e-15 0
rhumerus -71.7365 34.7415 -104.324
rradius 76.7368 0 0
rwrist 14.191 0 0
rhand -27.8518 -12.6687 0
rfingers 7.12502 0 0
rthumb -1.21031 -763.023 0
308
root 9.05727 15.4958 -23.676 30.5586 75.7059 38.711
lfemur -14.583 12.2511 -20.3699
ltibia 55.9666 0 0
lfoot -16.4984 -35.979 0
ltoes 63.7144 0 0
rfemur -41.4759 -6.3291 28.1572
rtibia 50.6851 0 0
rfoot -0.412581 -15.2742 0
rtoes 43.7153 0 0
lowerback 7.89356 -4.64276 -8.09101
upperback 4.77294 -6.47377 -4.35443
thorax 0.966133 -3.26633 0.364
lowerneck -2.72765 -12.2691 -6.02771
upperneck 2.60905 -16.5041 9.10289
head 2.73716 -8.15006 3.331
lclavicle -9.5056e-14 -4.46624e-15 0
lhumerus -40.9826 -41.5057 100.624
lradius 60.6582 0 0
lwrist 19.479 0 0
lhand 20.868 15.2148 0
lfingers 7.12502 0 0
lthumb 45.3493 38.629 0
rclavicle -9.5056e-14 -4.46624e-15 0
rhumerus -69.2317 34.2762 -102.484
rradius 76.2964 0 0
rwrist 12.9272 0 0
rhand -27.0878 -12.8078 0
rfingers 7.12502 0 0
rthumb -0.472584 -763.134 0
309
root 9.01776 15.5138 -23.6466 29.5038 74.3606 37.2328
lfemur -14.7424 12.6927 -20.2299
ltibia 55.4833 0 0
lfoot -16.8298 -35.1954 0
ltoes 63.8349 0 0
rfemur -42.6402 -7.08506 28.2604
rtibia 51.4108 0 0
rfoot -0.0709513 -13.7549 0
rtoes 40.281 0 0
lowerback 8.04411 -4.47824 -7.98674
upperback 4.77081 -6.26512 -4.35104
thorax 0.861033 -3.15915 0.306769
lowerneck -2.84761 -12.2104 -5.66149
upperneck 2.14387 -16.4018 9.16945
head 2.5728 -8.10792 3.30672
lclavicle -9.09317e-14 -4.34618e-15 0
lhumerus -41.3793 -42.0624 100.945
lradius 60.5653 0 0
lwrist 19.4316 0 0
lhand 20.5934 14.9263 0
lfingers 7.12502 0 0
lthumb 45.0923 38.4302 0
rclavicle -9.09317e-14 -4.34618e-15 0
rhumerus -65.7915 33.6866 -99.9554
rradius 75.8034 0 0
rwrist 11.1992 0 0
rhand -25.9367 -13.0061 0
rfingers 7.12502 0 0
rthumb 0.637332 -763.273 0
310
root 8.97825 15.5319 -23.6172 28.1243 72.5322 35.2981
lfemur -14.9159 13.2881 -20.0245
ltibia 54.8533 0 0
lfoot -17.2295 -34.0634 0
ltoes 63.7409 0 0
rfemur -44.1173 -8.06998 28.3626
rtibia 52.2826 0 0
rfoot 0.363239 -11.8602 0
rtoes 35.8974 0 0
lowerback 8.21823 -4.26147 -7.85063
upperback 4.76759 -5.98918 -4.34165
thorax 0.73633 -3.0177 0.235847
lowerneck -3.00176 -12.1304 -5.18191
upperneck 1.53879 -16.2644 9.25657
head 2.35842 -8.05093 3.27505
lclavicle -8.57774e-14 -4.18735e-15 0
lhumerus -41.8975 -42.7776 101.367
lradius 60.4434 0 0
lwrist 19.369 0 0
lhand 20.2117 14.5518 0
lfingers 7.12502 0 0
lthumb 44.735 38.1785 0
rclavicle -8.57774e-14 -4.18735e-15 0
rhumerus -61.2927 32.9658 -96.6458
rradius 75.2625 0 0
rwrist 8.94105 0 0
rhand -24.344 -13.2764 0
rfingers 7.12502 0 0
rthumb 2.17192 -763.449 0
311
root 8.93875 15.5499 -23.5879 26.383 70.1623 32.8566
lfemur -15.1019 14.0573 -19.7448
ltibia 54.0628 0 0
lfoot -17.7072 -32.5418 0
ltoes 63.3999 0 0
rfemur -45.9403 -9.31134 28.4661
rtibia 53.308 0 0
rfoot 0.898791 -9.55142 0
rtoes 30.4642 0 0
lowerback 8.41841 -3.98617 -7.68019
upperback 4.7639 -5.63788 -4.32593
thorax 0.59074 -2.83789 0.149835
lowerneck -3.19355 -12.0267 -4.57569
upperneck 0.777651 -16.088 9.36758
head 2.08827 -7.97744 3.23544
lclavicle -7.95074e-14 -3.98914e-15 0
lhumerus -42.5509 -43.6712 101.902
lradius 60.2896 0 0
lwrist 19.2892 0 0
lhand 19.7099 14.0811 0
lfingers 7.12502 0 0
lthumb 44.265 37.8679 0
rclavicle -7.95074e-14 -3.98914e-15 0
rhumerus -55.6123 32.1072 -92.4631
rradius 74.6782 0 0
rwrist 6.08675 0 0
rhand -22.255 -13.6318 0
rfingers 7.12502 0 0
rthumb 4.18366 -763.671 0
312
root 8.89924 15.5679 -23.5585 24.2428 67.1926 29.8578
lfemur -15.2989 15.0206 -19.3815
ltibia 53.0976 0 0
lfoot -18.2726 -30.5894 0
ltoes 62.7792 0 0
rfemur -48.1421 -10.8367 28.5734
rtibia 54.4943 0 0
rfoot 1.54451 -6.78973 0
rtoes 23.8815 0 0
lowerback 8.64711 -3.64606 -7.47295
upperback 4.76033 -5.20312 -4.30359
thorax 0.422976 -2.6156 0.0473328
lowerneck -3.42645 -11.8969 -3.82955
upperneck -0.155715 -15.8687 9.5058
head 1.75659 -7.8858 3.18732
lclavicle -7.20361e-14 -3.75091e-15 0
lhumerus -43.3531 -44.7632 102.559
lradius 60.1008 0 0
lwrist 19.1901 0 0
lhand 19.0747 13.504 0
lfingers 7.12502 0 0
lthumb 43.67 37.4923 0
rclavicle -7.20361e-14 -3.75091e-15 0
rhumerus -48.6271 31.1038 -87.3151
rradius 74.0551 0 0
rwrist 2.5704 0 0
rhand -19.6151 -14.0852 0
rfingers 7.12502 0 0
rthumb 6.72505 -763.947 0
313
root 8.85973 15.5859 -23.5291 21.6669 63.5645 26.2515
lfemur -15.5052 16.198 -18.9256
ltibia 51.9438 0 0
lfoot -18.9356 -28.1648 0
ltoes 61.8466 0 0
rfemur -50.7555 -12.6734 28.6868
rtibia 55.8492 0 0
rfoot 2.30919 -3.53642 0
rtoes 16.0491 0 0
lowerback 8.90682 -3.23485 -7.22644
upperback 4.75749 -4.67681 -4.27433
thorax 0.231752 -2.34675 -0.0730588
lowerneck -3.7039 -11.7385 -2.93022
upperneck -1.27746 -15.6026 9.67454
head 1.35762 -7.77438 3.13014
lclavicle -6.32779e-14 -3.47205e-15 0
lhumerus -44.3176 -46.0737 103.35
lradius 59.8739 0 0
lwrist 19.0696 0 0
lhand 18.2931 12.8103 0
lfingers 7.12502 0 0
lthumb 42.9377 37.0454 0
rclavicle -6.32779e-14 -3.47205e-15 0
rhumerus -40.2141 29.9488 -81.1097
rradius 73.3976 0 0
rwrist -1.67395 0 0
rhand -16.3699 -14.6496 0
rfingers 7.12502 0 0
rthumb 9.84855 -764.285 0
314
root 8.82022 15.604 -23.4997 18.6183 59.2196 21.9871
lfemur -15.7193 17.6099 -18.3681
ltibia 50.5874 0 0
lfoot -19.7058 -25.2268 0
ltoes 60.5694 0 0
rfemur -53.8134 -14.8491 28.8086
rtibia 57.38 0 0
rfoot 3.20164 0.247238 0
rtoes 6.86689 0 0
lowerback 9.20003 -2.74627 -6.93819
upperback 4.756 -4.05086 -4.23783
thorax 0.015783 -2.02725 -0.212739
lowerneck -4.02938 -11.5493 -1.86442
upperneck -2.60375 -15.2858 9.87712
head 0.885597 -7.64154 3.06333
lclavicle -5.31472e-14 -3.15193e-15 0
lhumerus -45.4581 -47.6227 104.285
lradius 59.6058 0 0
lwrist 18.9258 0 0
lhand 17.3519 11.9899 0
lfingers 7.12502 0 0
lthumb 42.0557 36.5212 0
rclavicle -5.31472e-14 -3.15193e-15 0
rhumerus -30.2501 28.6354 -73.7549
rradius 72.7103 0 0
rwrist -6.7122 0 0
rhand -12.4645 -15.3378 0
rfingers 7.12502 0 0
rthumb 13.6067 -764.693 0
315
root 8.78072 15.622 -23.4704 15.06 54.0996 17.0145
lfemur -15.9395 19.2762 -17.6997
ltibia 49.0145 0 0
lfoot -20.5929 -21.7342 0
ltoes 58.9152 0 0
rfemur -57.3488 -17.3912 28.9412
rtibia 59.0943 0 0
rfoot 4.23066 4.6 0
rtoes -3.76528 0 0
lowerback 9.52922 -2.17403 -6.60572
upperback 4.75646 -3.31718 -4.19379
thorax -0.226217 -1.65298 -0.373108
lowerneck -4.40633 -11.3267 -0.618872
upperneck -4.15074 -14.9144 10.1169
head 0.334771 -7.48563 2.98634
lclavicle -4.15585e-14 -2.78993e-15 0
lhumerus -46.7883 -49.4302 105.375
lradius 59.2935 0 0
lwrist 18.7566 0 0
lhand 16.238 11.0325 0
lfingers 7.12502 0 0
lthumb 41.0117 35.9134 0
rclavicle -4.15585e-14 -2.78993e-15 0
rhumerus -18.6122 27.1568 -65.1586
rradius 71.9978 0 0
rwrist -12.6103 0 0
rhand -7.84455 -16.1629 0
rfingers 7.12502 0 0
rthumb 18.0518 -765.181 0
